<?xml version="1.0" encoding="UTF-8"?>
<svg width="800px" height="800px" viewBox="0 0 24 24" version="1.1" xmlns="http://www.w3.org/2000/svg">
    <g stroke="none" stroke-width="1" fill="none" fill-rule="evenodd">
        <path d="M12,1 C12.5522847,1 13,1.44771525 13,2 L13,3.07089005 C16.2933567,3.55399522 18.9460048,6.20664329 19.42911,9.5 L20.5,9.5 C21.0522847,9.5 21.5,9.94771525 21.5,10.5 L21.5,13.5 C21.5,14.0522847 21.0522847,14.5 20.5,14.5 L19.42911,14.5 C18.9460048,17.7933567 16.2933567,20.4460048 13,20.92911 L13,22 C13,22.5522847 12.5522847,23 12,23 C11.4477153,23 11,22.5522847 11,22 L11,20.92911 C7.70664329,20.4460048 5.05399522,17.7933567 4.57089005,14.5 L3.5,14.5 C2.94771525,14.5 2.5,14.0522847 2.5,13.5 L2.5,10.5 C2.5,9.94771525 2.94771525,9.5 3.5,9.5 L4.57089005,9.5 C5.05399522,6.20664329 7.70664329,3.55399522 11,3.07089005 L11,2 C11,1.44771525 11.4477153,1 12,1 Z M12,5 C8.6862915,5 6,7.6862915 6,11 L6,13 C6,16.3137085 8.6862915,19 12,19 C15.3137085,19 18,16.3137085 18,13 L18,11 C18,7.6862915 15.3137085,5 12,5 Z M12,8 C13.6568542,8 15,9.34314575 15,11 L15,13 C15,14.6568542 13.6568542,16 12,16 C10.3431458,16 9,14.6568542 9,13 L9,11 C9,9.34314575 10.3431458,8 12,8 Z" fill="#FFFFFF"></path>
    </g>
</svg>
